<svg width="280" height="280" viewBox="0 0 280 280" fill="none" xmlns="http://www.w3.org/2000/svg">
<path d="M139.439 272.832C210.079 272.832 267.343 242.996 267.343 206.192C267.343 169.388 210.079 139.552 139.439 139.552C68.7997 139.552 11.5352 169.388 11.5352 206.192C11.5352 242.996 68.7997 272.832 139.439 272.832Z" fill="#F5F5F5"/>
<path d="M221.424 214.928C240.259 214.928 255.528 206.103 255.528 195.216C255.528 184.329 240.259 175.504 221.424 175.504C202.589 175.504 187.32 184.329 187.32 195.216C187.32 206.103 202.589 214.928 221.424 214.928Z" fill="#E6E6E6"/>
<path d="M84.0005 183.512C97.0485 191.072 97.6085 203.504 84.5045 211.008C71.4005 218.512 49.7285 218.344 36.6805 210.784C23.6325 203.224 23.6325 191.016 36.6805 183.512C49.7285 176.008 70.9525 176.008 84.0005 183.512Z" fill="#E6E6E6"/>
<path d="M190.455 224.168L147.615 199.416C146.103 198.632 144.311 198.632 142.743 199.416L99.903 224.168C98.559 224.952 98.559 226.184 99.903 226.968L119.447 238.224L101.191 248.752C97.495 250.88 91.447 250.88 87.751 248.752L59.079 232.176C57.511 231.28 56.615 230.104 56.615 228.928C56.615 227.752 57.511 226.632 59.079 225.68L84.503 211.008C85.063 210.728 85.287 210.056 84.951 209.496C84.671 208.936 83.999 208.712 83.439 209.048L83.383 209.104L57.959 223.776C55.663 225.12 54.375 226.968 54.375 228.928C54.375 230.888 55.663 232.792 57.959 234.08L86.631 250.656C91.559 253.176 97.383 253.176 102.311 250.656L121.687 239.512L142.799 251.72C144.311 252.504 146.103 252.504 147.671 251.72L190.511 226.968C191.799 226.184 191.799 224.896 190.455 224.168Z" fill="#E6E6E6"/>
<path d="M239.455 185.976C239.455 185.976 241.023 162.904 240.575 154.392C240.239 147.672 239.287 144.872 239.119 143.36C239.119 143.36 237.439 127.68 237.327 114.296C237.271 107.856 236.655 103.32 233.127 95.6479L210.503 101.08C210.055 104.496 208.487 127.064 208.095 147.112C207.759 164.696 208.263 180.04 208.263 180.04V180.936C208.263 181.944 208.039 182.672 207.367 184.352C206.527 186.48 205.351 188.44 203.839 190.176C203.391 190.68 200.143 193.48 199.695 194.096C198.295 195.72 201.207 196.616 203.335 196.336C205.575 196.056 209.103 195.16 210.055 193.816C210.727 192.92 211.231 189.672 211.903 188.776C214.199 185.64 215.151 184.296 215.151 183.288C215.207 181.496 214.591 180.768 214.311 179.76C214.479 177.632 219.071 160.16 219.183 153.944C219.239 150.976 219.015 146.944 219.015 146.944L222.599 126.504C223.999 131.6 226.407 144.312 227.191 149.128C228.199 155.064 230.775 170.352 232.287 179.424C232.847 182.952 233.127 184.688 233.407 186.368L233.463 187.04C233.519 187.936 234.135 197.4 234.527 199.36C235.255 203.504 238.951 203 239.511 199.64C240.015 196.784 239.399 187.992 239.399 186.872L239.455 185.976Z" fill="#FFA8A7"/>
<path d="M239.457 185.976C240.521 185.976 239.793 190.008 240.073 192.584C240.353 195.384 241.249 197.4 241.529 199.64C241.865 201.6 241.585 203.672 240.689 205.464C239.961 207.144 236.321 209.384 234.921 207.032C233.521 204.68 233.241 201.936 233.409 199.36C233.577 196.784 233.409 195.048 233.465 192.976C233.521 191.184 232.177 186.592 233.521 186.368L233.577 187.04C234.081 187.992 238.953 188.216 239.457 186.872V185.976Z" fill="#37474F"/>
<path d="M215.433 185.528C215.769 186.816 215.433 190.344 215.433 190.344C215.433 190.344 214.873 191.576 212.857 192.36L211.961 187.432L215.433 185.528Z" fill="#263238"/>
<path d="M212.858 192.416L208.434 190.96L207.426 187.04L212.354 189.56L212.858 192.416Z" fill="black"/>
<path d="M208.265 180.992V180.096C207.649 180.376 206.361 185.192 204.569 188.496C202.945 191.52 199.753 193.2 198.689 194.488C197.289 196.224 200.033 198.52 204.345 197.568C206.529 197.12 209.777 195.72 210.673 194.264C211.569 192.808 211.849 190.12 212.577 189.056C213.305 187.992 215.041 186.76 215.377 185.528C215.657 184.408 215.657 183.288 215.377 182.168C215.041 181.048 214.761 179.704 214.369 179.816V180.656C214.089 181.272 213.025 181.944 210.841 182.056C209.777 182.112 208.769 181.944 208.265 180.992Z" fill="#37474F"/>
<path d="M209.999 100.8C209.999 100.8 208.487 117.432 208.039 132.104C207.591 146.776 207.983 165.816 207.983 165.816C207.983 165.816 209.495 166.88 212.855 167.048C216.215 167.216 217.335 166.096 217.335 166.096C217.335 166.096 219.351 159.432 219.687 154.728C219.911 152.208 219.911 149.632 219.687 147.112L222.655 127.456C222.655 127.456 226.463 146.776 226.855 149.128C227.247 151.48 230.887 172.144 230.887 172.144C230.887 172.144 232.287 173.432 235.983 173.376C239.231 173.32 240.127 172.144 240.127 172.144C240.127 172.144 240.911 159.488 240.743 154.056C240.575 149.296 239.511 145.488 239.287 142.408C239.063 139.328 238.951 121.688 238.727 114.968C238.503 108.248 237.943 102.48 232.175 94.416L209.999 100.8Z" fill="#455A64"/>
<path d="M222.714 127.456L220.25 115.136C220.25 115.136 215.938 114.016 213.922 111.384C213.922 111.384 214.482 114.296 218.962 116.2L221.594 128.464L220.642 141.12L222.714 127.456Z" fill="#37474F"/>
<path d="M178.419 97.7196C179.987 97.9436 181.667 97.8316 183.179 97.3836C182.507 97.0476 181.891 96.5996 181.275 96.1516C180.715 95.7036 180.603 94.9196 181.051 94.3596C181.275 94.1356 181.779 94.6396 182.955 94.9756C184.467 95.4236 185.531 95.4796 186.931 96.3196C187.491 96.6556 188.107 96.7676 188.723 96.6556C192.195 95.9836 200.371 92.1756 204.123 90.1596C204.907 87.0236 206.195 82.4876 207.819 76.7756C209.331 71.5116 211.739 69.2156 215.603 69.3276L215.043 80.7516C215.043 80.7516 213.195 88.6476 210.955 95.0876C210.563 96.2076 208.939 97.4956 206.027 98.6156C202.219 100.016 197.683 101.36 192.083 102.872C189.843 103.544 187.491 103.992 185.195 104.216C179.315 104.72 177.019 103.096 176.235 101.92C173.939 98.6716 175.283 97.1036 178.419 97.7196Z" fill="#FFA8A7"/>
<path d="M225.513 69.2155L230.889 69.6075C229.937 74.0875 231.505 78.6795 234.921 81.6475L232.513 91.3355C232.569 92.5115 234.585 96.5435 236.489 100.912C232.849 105.728 215.153 107.408 209.385 103.152C210.281 98.6155 210.953 95.1435 211.121 93.4075L210.841 87.1355C203.617 81.1995 212.353 72.1275 215.545 69.2715L219.577 69.1035L225.513 69.2155Z" fill="#2E7BFF"/>
<path d="M248.192 117.432C247.408 116.816 246.96 115.864 247.016 114.856C247.128 113.96 247.296 112.84 247.688 112.392C248.08 111.944 250.432 108.752 251.44 110.6C252.56 112.616 252.336 113.456 252.336 113.456L248.192 117.432Z" fill="#F28F8F"/>
<path d="M240.969 160.16C238.449 160.048 235.985 159.32 233.801 157.976L205.857 141.848C201.545 139.384 198.017 133.28 198.017 128.296V104.832C198.017 102.368 196.001 100.352 193.537 100.352C192.753 100.352 191.969 100.576 191.297 100.968L181.497 106.624C180.993 106.96 180.265 106.792 179.929 106.288C179.593 105.784 179.761 105.056 180.265 104.72L180.321 104.664L190.121 99.0078C193.313 97.1598 197.457 98.2798 199.305 101.472C199.865 102.48 200.201 103.656 200.201 104.832V128.296C200.201 132.496 203.281 137.816 206.921 139.944L234.865 156.072C238.449 158.144 241.753 158.48 244.217 157.08C246.681 155.68 248.025 152.6 248.025 148.456V118.496C248.025 113.4 251.273 107.576 255.417 105.168L262.249 101.248C262.753 100.912 263.481 101.08 263.817 101.584C264.153 102.088 263.985 102.816 263.481 103.152L263.425 103.208L256.593 107.128C253.177 109.088 250.321 114.296 250.321 118.496V148.456C250.321 153.44 248.585 157.136 245.393 158.984C244.049 159.768 242.537 160.16 240.969 160.16Z" fill="#37474F"/>
<path d="M192.644 108.248V110.096C192.644 113.008 190.572 116.592 188.052 118.048L171.084 127.848L153.836 117.88V102.928L170.58 95.1998C173.268 93.9678 177.468 94.1358 179.988 95.6478L188.052 100.296C190.572 101.752 192.644 105.336 192.644 108.248Z" fill="#37474F"/>
<path d="M170.58 95.1998C173.268 93.9678 177.468 94.1358 179.988 95.6478L188.052 100.296C190.572 101.752 190.516 103.936 187.828 105.168L171.084 112.896L153.836 102.928L170.58 95.1998Z" fill="#455A64"/>
<path opacity="0.15" d="M172.708 109.312C174.052 110.208 174.892 111.664 175.004 113.288V125.552L171.084 127.792L153.836 117.824V102.928L158.204 100.912L172.708 109.312Z" fill="black"/>
<path d="M152.38 100.352C152.884 100.128 153.5 100.184 154.004 100.52L170.972 110.32C172.316 111.216 173.156 112.672 173.268 114.296V128.912C173.324 129.472 173.1 130.032 172.596 130.368C172.204 130.592 170.804 131.376 170.412 131.6C169.908 131.824 169.292 131.768 168.788 131.432L151.82 121.632C150.476 120.736 149.636 119.28 149.524 117.656V103.04C149.468 102.48 149.692 101.92 150.196 101.584L152.38 100.352Z" fill="#37474F"/>
<path d="M168.787 111.552L151.819 101.752C150.531 101.024 149.523 101.64 149.523 103.096V117.712C149.635 119.336 150.475 120.792 151.819 121.688L168.787 131.488C170.075 132.216 171.083 131.6 171.083 130.144V115.528C170.971 113.904 170.131 112.448 168.787 111.552Z" fill="#455A64"/>
<path d="M148.684 128.576V131.096C148.684 132.104 149.02 132.832 149.636 133.168L151.148 134.064C151.876 134.4 152.772 134.344 153.444 133.84L167.444 125.72V115.752L165.932 114.856L151.932 122.976C149.972 124.208 148.796 126.28 148.684 128.576ZM155.012 125.44C155.068 125.608 155.068 125.832 155.124 126C155.068 127.512 154.228 128.912 152.94 129.752C152.772 129.864 152.604 129.92 152.38 129.976C152.324 129.808 152.324 129.584 152.324 129.416C152.38 127.904 153.22 126.504 154.508 125.664C154.676 125.552 154.844 125.496 155.012 125.44Z" fill="#2E7BFF"/>
<path opacity="0.2" d="M151.092 134.008C151.148 134.008 151.148 134.064 151.204 134.064L151.092 134.008L149.636 133.168C149.076 132.832 148.684 132.104 148.684 131.096V128.576C148.74 127.456 149.02 126.336 149.636 125.384L151.148 126.28C150.588 127.232 150.252 128.352 150.196 129.472V131.992C150.14 132.664 150.364 133.28 150.756 133.784C150.868 133.84 150.98 133.952 151.092 134.008Z" fill="black"/>
<path opacity="0.5" d="M167.441 115.752L153.441 123.872C152.489 124.488 151.705 125.272 151.145 126.28L149.633 125.384C150.193 124.432 150.977 123.592 151.873 122.976L165.873 114.856L167.441 115.752Z" fill="white"/>
<path opacity="0.2" d="M155.12 126C155.12 125.776 155.12 125.608 155.064 125.384C155.96 125.16 156.688 125.72 156.688 126.84C156.632 128.352 155.792 129.752 154.56 130.592C153.552 131.152 152.712 130.872 152.488 129.92C152.712 129.864 152.88 129.808 153.048 129.696C154.224 128.912 155.064 127.512 155.12 126Z" fill="black"/>
<path d="M135.746 121.072V123.592C135.746 124.6 136.082 125.328 136.698 125.664L138.21 126.56C138.938 126.896 139.834 126.84 140.506 126.336L154.506 118.216V108.248L152.994 107.352L138.994 115.472C137.09 116.76 135.858 118.832 135.746 121.072ZM142.13 117.936C142.186 118.104 142.186 118.328 142.186 118.552C142.13 120.064 141.29 121.464 140.002 122.304C139.834 122.416 139.61 122.472 139.442 122.528C139.386 122.36 139.386 122.136 139.386 121.912C139.442 120.4 140.282 119 141.514 118.16C141.738 118.104 141.906 117.992 142.13 117.936Z" fill="#2E7BFF"/>
<path opacity="0.2" d="M138.266 126.616H138.21L136.698 125.72C136.082 125.384 135.746 124.656 135.746 123.648V121.128C135.746 120.568 135.858 120.064 135.97 119.56C136.138 119 136.362 118.496 136.642 117.992L138.154 118.888C137.986 119.112 137.874 119.392 137.762 119.672C137.426 120.4 137.202 121.24 137.202 122.08V124.6C137.146 125.272 137.37 125.888 137.762 126.392C137.986 126.448 138.098 126.56 138.266 126.616Z" fill="black"/>
<path opacity="0.5" d="M154.507 108.304L140.507 116.424C139.555 117.04 138.771 117.824 138.211 118.832L136.699 117.936C137.203 116.984 137.987 116.144 138.939 115.528L152.939 107.408L154.507 108.304Z" fill="white"/>
<path opacity="0.2" d="M142.187 118.552C142.187 118.328 142.187 118.16 142.131 117.936C143.027 117.656 143.755 118.272 143.755 119.392C143.699 120.904 142.859 122.304 141.627 123.144C140.619 123.704 139.779 123.424 139.555 122.472C139.779 122.416 139.947 122.36 140.115 122.248C141.291 121.464 142.075 120.064 142.187 118.552Z" fill="black"/>
<path d="M140.002 111.776C139.61 111.776 139.274 111.496 139.218 111.16L136.978 102.368C136.866 101.92 137.146 101.472 137.594 101.36C138.042 101.248 138.49 101.528 138.602 101.976L140.842 110.768C140.954 111.216 140.674 111.664 140.282 111.776C140.17 111.72 140.058 111.72 140.002 111.776Z" fill="#E0E0E0"/>
<path d="M133.671 115.416C133.503 115.416 133.279 115.36 133.167 115.248L124.823 108.64C124.431 108.36 124.375 107.856 124.655 107.464C124.935 107.072 125.439 107.016 125.831 107.296L125.887 107.352L134.231 113.96C134.567 114.24 134.679 114.8 134.343 115.136C134.175 115.304 133.951 115.416 133.671 115.416Z" fill="#E0E0E0"/>
<path d="M122.193 123.424C121.745 123.424 121.353 123.088 121.297 122.64C121.297 122.192 121.633 121.8 122.081 121.744L131.825 120.96C132.273 120.904 132.665 121.24 132.721 121.744C132.777 122.192 132.385 122.584 131.937 122.64L122.193 123.424Z" fill="#E0E0E0"/>
<path d="M255.807 108.304C255.639 106.232 255.303 104.16 254.911 102.144C253.623 97.3836 251.943 92.7356 249.815 88.2556C248.863 86.4636 246.791 83.8876 245.279 81.6476C243.151 78.5116 241.695 76.7756 240.071 74.7036C236.543 70.0556 235.031 69.7756 230.887 69.6636C230.327 71.1196 229.039 77.1676 233.183 82.0396L242.031 91.3916C242.535 92.1756 247.967 101.472 248.863 104.888C249.031 105.504 248.919 106.12 248.639 106.68C247.911 108.248 247.407 109.872 247.071 111.608C246.791 112.784 246.119 113.736 246.343 113.904C246.959 114.296 247.743 114.24 248.303 113.736C248.919 113.064 249.479 112.28 249.815 111.44C250.487 111.384 251.047 111.888 251.103 112.56C251.103 112.616 251.103 112.616 251.103 112.672C251.159 113.344 250.823 114.296 250.599 115.528C250.543 115.752 250.487 116.032 250.375 116.704C250.263 117.152 250.207 117.6 250.207 118.048C251.327 118.272 252.503 117.544 254.407 115.808C256.199 114.128 256.311 111.944 255.807 108.304Z" fill="#FFA8A7"/>
<path d="M226.463 66.4717C226.519 65.3517 230.159 62.7197 232.007 59.9197C233.687 57.3437 236.095 50.2317 230.439 47.9357C230.439 47.9357 231.671 44.5197 229.431 42.5037C227.191 40.4877 224.223 41.7197 223.775 42.5597C223.215 40.4317 221.255 38.9197 219.015 38.8637C216.831 38.6957 214.871 40.1517 214.367 42.3357C212.519 41.5517 210.391 42.1677 209.215 43.7917C207.143 46.6477 209.887 49.2797 209.887 49.2797C209.159 49.7837 208.767 50.6237 208.823 51.5197C208.991 52.7517 210.167 53.0317 210.279 53.6477C210.335 53.9837 210.111 54.2637 209.831 54.3757C209.607 54.4317 209.439 54.3757 209.271 54.2077C209.383 54.8797 210.055 55.3277 210.727 55.1597C212.015 55.1037 213.191 53.3117 213.191 53.3117L226.463 66.4717Z" fill="#263238"/>
<path d="M214.592 47.6558C212.912 48.3838 211.344 50.9598 211.344 58.1278C211.344 64.1758 213.248 65.7438 214.144 66.1918C215.04 66.6398 216.944 66.4158 218.68 66.1358V69.6078C218.68 69.6078 215.432 73.6398 218.344 75.5998C225.792 74.3118 226.352 69.3838 226.352 69.3838L226.464 61.7678C226.464 61.7678 227.472 62.8318 229.264 61.2638C230.776 59.9758 231.28 57.7358 230.16 56.5038C229.04 55.2718 227.584 55.1598 226.296 56.5598C226.296 56.5598 223.944 56.7278 220.36 54.4878C216.776 52.2478 215.6 49.8958 214.592 47.6558Z" fill="#FFA8A7"/>
<path d="M218.907 61.8796C218.963 62.3836 218.571 62.7755 218.067 62.8315C217.563 62.8875 217.115 62.4955 217.115 61.9915C217.059 61.4875 217.451 61.0396 217.955 61.0396C218.459 61.0396 218.851 61.3196 218.907 61.8796C218.907 61.8796 218.907 61.8236 218.907 61.8796Z" fill="#B16668"/>
<path d="M214.312 55.9997C214.312 56.4477 213.92 56.7837 213.472 56.7837C213.024 56.7837 212.688 56.3917 212.688 55.9437C212.688 55.4957 213.024 55.1597 213.472 55.1597C213.92 55.1597 214.312 55.5517 214.312 55.9997Z" fill="#263238"/>
<path d="M220.529 56.3917C220.585 56.8957 220.193 57.2877 219.689 57.3437C219.185 57.3437 218.793 56.9517 218.793 56.4477C218.793 55.9437 219.129 55.5517 219.633 55.5517C220.081 55.4957 220.473 55.8877 220.529 56.3917Z" fill="#263238"/>
<path d="M213.754 52.8076L212.074 53.8156C212.298 54.2636 212.914 54.4316 213.362 54.2076C213.362 54.2076 213.418 54.2076 213.418 54.1516C213.866 53.8716 213.978 53.2556 213.754 52.8076Z" fill="#263238"/>
<path d="M226.464 55.5518V58.9118C225.568 58.9118 224.84 58.2398 224.84 57.3998C224.84 57.3438 224.84 57.3438 224.84 57.2878C224.84 56.3358 225.512 55.6078 226.464 55.5518Z" fill="#263238"/>
<path d="M216.497 55.2158L216.161 60.0318L213.641 59.4158L216.497 55.2158Z" fill="#F28F8F"/>
<path d="M218.738 66.0796C220.642 65.8556 224.506 64.7916 225.122 63.2236C224.898 64.0076 224.394 64.7356 223.722 65.2396C222.546 66.2476 218.738 67.3116 218.738 67.3116V66.0796Z" fill="#F28F8F"/>
<path d="M241.304 28.6718C242.032 28.9518 242.704 29.3438 243.264 29.7918C243.824 30.2398 244.328 30.7438 244.72 31.3598C245.112 31.9198 245.336 32.5918 245.448 33.2638C245.56 33.9918 245.448 34.7198 245.168 35.4478C245 36.0078 244.664 36.5118 244.272 36.9598C243.936 37.3518 243.544 37.6318 243.096 37.9118C242.648 38.1358 242.2 38.3598 241.752 38.5278L240.408 38.9758C240.016 39.1438 239.624 39.3118 239.288 39.4798C238.952 39.6478 238.672 39.9278 238.504 40.2078C238.392 40.3758 238.28 40.4878 238.112 40.5438C237.944 40.5998 237.776 40.6558 237.608 40.5998L235.872 39.9278C235.704 39.8718 235.592 39.7598 235.48 39.5918C235.424 39.4238 235.424 39.2558 235.48 39.0878C235.704 38.5278 236.04 38.0798 236.432 37.6318C236.824 37.2958 237.216 36.9598 237.664 36.7358C238.112 36.5118 238.56 36.2878 239.064 36.1198C239.512 35.9518 239.96 35.7838 240.408 35.6718C240.8 35.5598 241.136 35.3358 241.472 35.1678C241.752 34.9998 241.976 34.7198 242.088 34.3838C242.312 33.8238 242.256 33.1518 241.92 32.6478C241.472 32.0318 240.912 31.5838 240.184 31.3598C238.896 30.8558 237.496 31.1918 236.6 32.1998C236.488 32.3118 236.376 32.4238 236.208 32.4798C236.04 32.5358 235.872 32.5358 235.76 32.4238L233.912 31.7518C233.8 31.6958 233.688 31.5838 233.632 31.4718C233.576 31.3598 233.576 31.1918 233.632 31.0238C233.856 30.4638 234.248 29.9598 234.752 29.5678C235.312 29.1198 235.928 28.7838 236.6 28.5038C237.328 28.2238 238.112 28.1118 238.896 28.1118C239.68 28.2238 240.52 28.3918 241.304 28.6718ZM237.328 42.0558C237.496 42.1118 237.608 42.2238 237.664 42.3918C237.72 42.5598 237.72 42.7278 237.664 42.8958L236.88 44.9118C236.824 45.0798 236.712 45.1918 236.544 45.3038C236.376 45.3598 236.208 45.3598 236.04 45.3038L234.08 44.5758C233.912 44.5198 233.8 44.4078 233.744 44.2398C233.688 44.0718 233.688 43.9038 233.744 43.7358L234.528 41.7198C234.584 41.5518 234.696 41.4398 234.864 41.3278C235.032 41.2718 235.2 41.2718 235.368 41.3278L237.328 42.0558Z" fill="#2E7BFF"/>
<path d="M242.256 52.8078C242.48 53.0318 242.48 53.4238 242.256 53.7038L240.856 55.1598C240.744 55.2718 240.576 55.3278 240.408 55.3278C240.24 55.3278 240.072 55.2718 239.96 55.1598L238.504 53.8158C238.392 53.7038 238.336 53.5358 238.336 53.3678C238.336 53.1998 238.392 53.0318 238.504 52.9198L239.904 51.4638C240.128 51.2398 240.52 51.2398 240.8 51.4638L242.256 52.8078ZM250.656 42.6718C251.16 43.1758 251.608 43.7358 252 44.3518C252.336 44.9678 252.56 45.5838 252.728 46.2558C252.84 46.8718 252.784 47.5438 252.616 48.1598C252.28 49.3918 251.384 50.3438 250.264 50.9038C249.816 51.0718 249.368 51.2398 248.864 51.2958C248.416 51.3518 247.912 51.3518 247.464 51.3518L246.12 51.2958C245.728 51.2958 245.336 51.2958 244.944 51.3518C244.608 51.4078 244.272 51.5198 243.992 51.7438C243.88 51.8558 243.712 51.9118 243.544 51.9118C243.376 51.9118 243.208 51.8558 243.096 51.7438L241.808 50.5118C241.696 50.3998 241.64 50.2318 241.584 50.0638C241.584 49.8958 241.64 49.7278 241.752 49.6158C242.144 49.2238 242.592 48.9438 243.096 48.7198C243.544 48.5518 244.048 48.4398 244.496 48.3838C244.944 48.3278 245.448 48.3278 245.896 48.3838C246.344 48.4398 246.792 48.4398 247.184 48.4958C247.576 48.4958 247.912 48.4958 248.304 48.4398C248.64 48.3838 248.92 48.2158 249.144 47.9918C249.536 47.5998 249.704 46.9838 249.592 46.4238C249.48 45.7518 249.088 45.1358 248.528 44.6318C247.632 43.7358 246.232 43.5118 245.056 44.0718C244.944 44.1278 244.776 44.1838 244.608 44.1838C244.44 44.1838 244.328 44.1278 244.216 43.9598L242.872 42.6718C242.76 42.5598 242.704 42.4478 242.704 42.3358C242.704 42.1678 242.76 42.0558 242.872 41.9438C243.32 41.5518 243.824 41.2718 244.384 41.1038C245 40.9358 245.672 40.8238 246.344 40.8798C247.072 40.9358 247.8 41.1038 248.472 41.3838C249.424 41.6638 250.096 42.1118 250.656 42.6718Z" fill="#2E7BFF"/>
<g opacity="0.6">
<path d="M242.256 52.8078C242.48 53.0318 242.48 53.4238 242.256 53.7038L240.856 55.1598C240.744 55.2718 240.576 55.3278 240.408 55.3278C240.24 55.3278 240.072 55.2718 239.96 55.1598L238.504 53.8158C238.392 53.7038 238.336 53.5358 238.336 53.3678C238.336 53.1998 238.392 53.0318 238.504 52.9198L239.904 51.4638C240.128 51.2398 240.52 51.2398 240.8 51.4638L242.256 52.8078ZM250.656 42.6718C251.16 43.1758 251.608 43.7358 252 44.3518C252.336 44.9678 252.56 45.5838 252.728 46.2558C252.84 46.8718 252.784 47.5438 252.616 48.1598C252.28 49.3918 251.384 50.3438 250.264 50.9038C249.816 51.0718 249.368 51.2398 248.864 51.2958C248.416 51.3518 247.912 51.3518 247.464 51.3518L246.12 51.2958C245.728 51.2958 245.336 51.2958 244.944 51.3518C244.608 51.4078 244.272 51.5198 243.992 51.7438C243.88 51.8558 243.712 51.9118 243.544 51.9118C243.376 51.9118 243.208 51.8558 243.096 51.7438L241.808 50.5118C241.696 50.3998 241.64 50.2318 241.584 50.0638C241.584 49.8958 241.64 49.7278 241.752 49.6158C242.144 49.2238 242.592 48.9438 243.096 48.7198C243.544 48.5518 244.048 48.4398 244.496 48.3838C244.944 48.3278 245.448 48.3278 245.896 48.3838C246.344 48.4398 246.792 48.4398 247.184 48.4958C247.576 48.4958 247.912 48.4958 248.304 48.4398C248.64 48.3838 248.92 48.2158 249.144 47.9918C249.536 47.5998 249.704 46.9838 249.592 46.4238C249.48 45.7518 249.088 45.1358 248.528 44.6318C247.632 43.7358 246.232 43.5118 245.056 44.0718C244.944 44.1278 244.776 44.1838 244.608 44.1838C244.44 44.1838 244.328 44.1278 244.216 43.9598L242.872 42.6718C242.76 42.5598 242.704 42.4478 242.704 42.3358C242.704 42.1678 242.76 42.0558 242.872 41.9438C243.32 41.5518 243.824 41.2718 244.384 41.1038C245 40.9358 245.672 40.8238 246.344 40.8798C247.072 40.9358 247.8 41.1038 248.472 41.3838C249.424 41.6638 250.096 42.1118 250.656 42.6718Z" fill="white"/>
</g>
<path d="M43.0078 193.592C44.7998 194.656 47.1518 194.712 49.3358 193.928L51.0158 182.168L43.1758 180.152L43.0078 193.592Z" fill="#FFA8A7"/>
<path d="M55.6641 204.848C55.8321 205.072 55.7201 206.528 55.4961 206.864C55.2721 207.2 53.9281 208.32 51.4081 208.376C49.0561 208.432 46.9281 207.984 45.5841 207.032C44.2401 206.08 43.6241 205.072 43.5681 203.728C43.5121 202.384 43.7361 201.096 43.1201 200.032C42.5041 198.968 41.8321 198.072 41.6641 197.512C41.4401 196.56 41.4401 195.552 41.6641 194.6L55.6641 204.848Z" fill="#263238"/>
<path d="M49.8973 193.424C49.8973 193.928 49.9533 194.432 50.1213 194.936C50.4013 196 50.8493 197.008 51.4093 197.96C51.6893 198.464 51.9693 198.968 52.3053 199.416C52.9773 200.312 53.8173 201.04 54.5453 201.936C55.3293 202.72 55.7773 203.784 55.8333 204.904C55.8333 206.752 53.7613 207.256 52.2493 207.48C50.5693 207.704 48.8333 207.536 47.2093 206.976C45.4733 206.416 44.2413 204.904 44.0173 203.112C43.9613 202.608 44.0173 202.048 43.9613 201.544C43.8493 200.368 43.4013 199.192 42.6733 198.24C42.2813 197.68 41.9453 197.064 41.6653 196.392C41.2173 195.216 41.7213 193.928 42.0573 192.808C42.3933 191.856 42.6173 190.68 42.9533 190.792C42.9533 191.016 42.9533 191.408 42.9533 191.408C43.0653 191.632 43.2893 191.8 43.3453 192.024C43.4013 192.304 43.4573 192.528 43.5693 192.808C43.7373 193.2 44.0173 193.536 44.3533 193.76C44.4093 193.088 44.4653 192.36 44.5213 191.688C44.4653 191.296 44.7453 190.904 45.1373 190.848C45.1933 190.848 45.2493 190.848 45.3053 190.848C46.5933 190.624 47.9373 190.568 49.2813 190.736C49.5053 190.736 49.6733 190.848 49.7853 191.016C49.8413 191.184 49.8973 191.352 49.8413 191.52C49.9533 192.136 49.8973 192.808 49.8973 193.424Z" fill="#2E7BFF"/>
<path opacity="0.2" d="M49.8973 193.424C49.8973 193.928 49.9533 194.432 50.1213 194.936C50.4013 196 50.8493 197.008 51.4093 197.96C51.6893 198.464 51.9693 198.968 52.3053 199.416C52.9773 200.312 53.8173 201.04 54.5453 201.936C55.3293 202.72 55.7773 203.784 55.8333 204.904C55.8333 206.752 53.7613 207.256 52.2493 207.48C50.5693 207.704 48.8333 207.536 47.2093 206.976C45.4733 206.416 44.2413 204.904 44.0173 203.112C43.9613 202.608 44.0173 202.048 43.9613 201.544C43.8493 200.368 43.4013 199.192 42.6733 198.24C42.2813 197.68 41.9453 197.064 41.6653 196.392C41.2173 195.216 41.7213 193.928 42.0573 192.808C42.3933 191.856 42.6173 190.68 42.9533 190.792C42.9533 191.016 42.9533 191.408 42.9533 191.408C43.0653 191.632 43.2893 191.8 43.3453 192.024C43.4013 192.304 43.4573 192.528 43.5693 192.808C43.7373 193.2 44.0173 193.536 44.3533 193.76C44.4093 193.088 44.4653 192.36 44.5213 191.688C44.4653 191.296 44.7453 190.904 45.1373 190.848C45.1933 190.848 45.2493 190.848 45.3053 190.848C46.5933 190.624 47.9373 190.568 49.2813 190.736C49.5053 190.736 49.6733 190.848 49.7853 191.016C49.8413 191.184 49.8973 191.352 49.8413 191.52C49.9533 192.136 49.8973 192.808 49.8973 193.424Z" fill="black"/>
<path d="M51.635 198.408C50.963 197.848 49.451 197.792 48.555 197.792C47.715 197.848 46.875 198.072 46.091 198.52C45.867 198.632 45.587 198.632 45.419 198.408C45.251 198.184 45.251 197.848 45.419 197.68L45.475 197.624C46.315 197.064 47.267 196.784 48.219 196.784C50.403 196.728 50.963 197.12 50.963 197.12C50.963 197.12 51.859 197.792 51.635 198.408Z" fill="#455A64"/>
<path d="M53.1454 200.368C52.3054 199.808 50.6254 199.808 49.7294 199.808C48.8894 199.864 48.0494 200.088 47.3774 200.592C47.1534 200.76 46.8734 200.704 46.6494 200.48C46.4814 200.256 46.4814 199.976 46.6494 199.752L46.7054 199.696C47.5454 199.136 48.4974 198.8 49.5054 198.744C51.5774 198.688 52.1374 199.192 52.1374 199.192C52.6414 199.416 52.9774 199.864 53.1454 200.368Z" fill="#455A64"/>
<path d="M47.5455 194.768C48.4415 194.656 49.3375 194.768 50.1775 195.104C50.5135 195.328 50.7375 195.944 50.5135 196.056C49.7855 195.72 49.0015 195.552 48.1615 195.608C47.3775 195.664 46.5935 195.832 45.8655 196.112C45.6975 196.168 45.4735 196.28 45.3055 196.392C45.0815 196.504 44.7455 196.448 44.6335 196.168C44.6335 196.168 44.6335 196.168 44.6335 196.112C44.5775 195.888 44.6335 195.664 44.8575 195.552C45.6975 195.104 46.5935 194.824 47.5455 194.768Z" fill="#455A64"/>
<path d="M65.1291 189.168C66.4731 192.584 68.6571 191.52 71.9051 189.56L72.4091 177.856L64.1211 177.072L65.1291 189.168Z" fill="#FFA8A7"/>
<path d="M84.3915 197.4C84.5595 197.96 84.5035 198.52 84.2235 199.024C83.9435 199.472 81.3675 200.76 78.0075 200.368C75.4875 200.032 73.1355 199.08 71.1195 197.512C69.8875 196.56 68.5435 196.336 66.8635 196.168C65.1835 196 63.9515 195.384 63.6155 194.6C63.2795 193.816 63.7835 192.472 63.7835 192.472L84.3915 197.4Z" fill="#263238"/>
<path d="M71.1771 186.648C71.4571 186.592 71.7931 186.48 72.0731 186.368C72.2411 186.312 72.4091 186.312 72.5771 186.368C72.8011 186.48 72.8571 186.704 72.9131 186.928C72.9691 187.432 73.0811 187.936 73.1931 188.44C73.4171 188.832 73.7531 189.224 74.0891 189.504C74.8731 190.232 75.7691 190.848 76.7211 191.408C77.7851 192.08 78.8491 192.584 79.9691 193.144C81.0891 193.704 82.6571 194.152 83.5531 194.824C84.8411 195.776 84.8971 198.072 83.3291 198.856C81.9851 199.528 78.5131 200.2 74.9291 198.968C72.9691 198.296 70.8971 196.056 68.3211 195.72C66.6971 195.496 64.5131 195.272 63.5051 193.928C63.1691 193.368 63.4491 191.744 63.7291 189.84C64.0091 188.16 64.2331 185.472 64.7931 185.64L64.8491 186.144L65.5211 186.928C65.6891 187.096 65.8011 187.208 65.9691 187.376C66.1371 187.6 66.3051 187.768 66.5291 187.992C66.8091 188.216 67.1451 188.384 67.4811 188.384C67.6491 188.384 67.8171 188.384 67.9291 188.272C68.2091 188.104 68.2651 187.768 68.4891 187.488C68.7691 187.208 69.0491 186.984 69.3851 186.872C69.8891 186.704 70.3931 186.592 70.8971 186.592C71.0091 186.704 71.1211 186.648 71.1771 186.648Z" fill="#2E7BFF"/>
<path opacity="0.2" d="M71.1771 186.648C71.4571 186.592 71.7931 186.48 72.0731 186.368C72.2411 186.312 72.4091 186.312 72.5771 186.368C72.8011 186.48 72.8571 186.704 72.9131 186.928C72.9691 187.432 73.0811 187.936 73.1931 188.44C73.4171 188.832 73.7531 189.224 74.0891 189.504C74.8731 190.232 75.7691 190.848 76.7211 191.408C77.7851 192.08 78.8491 192.584 79.9691 193.144C81.0891 193.704 82.6571 194.152 83.5531 194.824C84.8411 195.776 84.8971 198.072 83.3291 198.856C81.9851 199.528 78.5131 200.2 74.9291 198.968C72.9691 198.296 70.8971 196.056 68.3211 195.72C66.6971 195.496 64.5131 195.272 63.5051 193.928C63.1691 193.368 63.4491 191.744 63.7291 189.84C64.0091 188.16 64.2331 185.472 64.7931 185.64L64.8491 186.144L65.5211 186.928C65.6891 187.096 65.8011 187.208 65.9691 187.376C66.1371 187.6 66.3051 187.768 66.5291 187.992C66.8091 188.216 67.1451 188.384 67.4811 188.384C67.6491 188.384 67.8171 188.384 67.9291 188.272C68.2091 188.104 68.2651 187.768 68.4891 187.488C68.7691 187.208 69.0491 186.984 69.3851 186.872C69.8891 186.704 70.3931 186.592 70.8971 186.592C71.0091 186.704 71.1211 186.648 71.1771 186.648Z" fill="black"/>
<path d="M75.2653 190.4C75.0413 189.952 74.5933 189.616 74.0893 189.504C73.3613 189.336 72.0173 189.784 71.1213 190.456C70.8413 190.68 70.7853 191.016 71.0093 191.296C71.0653 191.352 71.1213 191.408 71.1773 191.464C71.4013 191.576 71.6813 191.576 71.9053 191.408C72.8573 190.68 74.0333 190.288 75.2653 190.4Z" fill="#455A64"/>
<path d="M77.5042 191.856C77.2242 191.352 76.6642 191.072 76.1042 191.016C74.9282 191.016 73.8083 191.352 72.8563 192.024C72.5763 192.192 72.5202 192.584 72.6882 192.864C72.7442 192.92 72.8003 192.976 72.8563 193.032C73.0803 193.144 73.3602 193.144 73.5282 192.976C74.6482 192.024 76.1042 191.576 77.5042 191.856Z" fill="#455A64"/>
<path d="M80.0245 193.144C79.6885 192.696 79.1285 192.416 78.5685 192.416C77.4485 192.416 76.3845 192.808 75.4885 193.424C75.2085 193.648 75.1525 193.984 75.3765 194.264C75.4325 194.32 75.4885 194.376 75.5445 194.432C75.7685 194.6 76.0485 194.544 76.2165 194.376C77.1685 193.368 78.6245 192.92 80.0245 193.144Z" fill="#455A64"/>
<path d="M42.787 162.064C43.011 156.408 44.243 153.496 44.411 151.928C44.411 151.928 44.859 120.904 45.643 111.496L73.4191 110.32C73.8111 120.4 74.2031 147.504 73.9791 151.088C73.7551 154.504 72.355 184.296 72.355 184.296C68.435 185.528 64.235 183.736 64.235 183.736C64.235 183.736 61.883 166.824 61.547 163.072C61.267 159.712 61.379 156.352 61.827 152.992L60.035 128.856C60.035 128.856 57.907 147.56 56.843 154.616C55.611 162.68 50.403 187.656 50.403 187.656C46.651 188.608 43.011 186.984 43.011 186.984C43.011 186.984 42.451 170.24 42.787 162.064Z" fill="#455A64"/>
<path d="M60.0352 128.856L60.5392 125.552C62.1632 125.328 66.2512 122.752 68.6592 120.512C66.9232 123.144 64.5712 125.272 61.8272 126.784L61.7152 152.992L60.0352 128.856Z" fill="#37474F"/>
<path d="M71.4568 93.9679C69.5528 89.6559 66.3048 82.4319 66.3048 82.4319L65.4648 70.6719C66.6408 70.7279 67.8728 70.8399 69.0488 71.0079C70.7848 71.2879 73.5848 72.9679 74.8168 76.1039C75.7688 78.4559 80.6968 92.6799 80.6968 92.6799L89.2648 88.1439C91.4488 86.7439 92.2328 84.4479 93.6328 83.1039C95.0328 81.7599 96.4328 81.5919 98.0008 80.5279C99.5688 79.4639 100.185 78.6239 100.577 79.6879C100.969 80.7519 99.2328 82.3759 98.8968 82.8239C98.5608 83.2719 96.8808 84.1119 99.0088 84.2239C101.137 84.3359 105.505 82.2639 106.569 81.8719C107.633 81.4799 107.521 82.7679 106.961 83.4959C106.401 84.2239 106.345 86.5199 105.449 87.7519C104.497 89.0959 103.993 89.6559 101.921 90.4959C100.017 91.2239 96.0408 91.4479 93.9688 92.6239C91.8968 93.7999 86.9688 98.2799 83.6648 100.576C79.2408 103.656 76.7208 103.88 74.9848 101.416C73.2488 98.9519 72.0728 95.4799 71.4568 93.9679Z" fill="#FFA8A7"/>
<path d="M64.2891 70.3919C67.2011 70.1679 70.6171 70.3359 72.5211 72.0719C74.0331 73.4719 74.5931 74.3119 76.3291 79.0719C77.4491 82.2639 79.8571 89.6559 79.8571 89.6559C76.5531 90.3839 73.6411 92.2319 71.4571 94.8079L65.9691 82.5439L64.2891 70.3919Z" fill="#E0E0E0"/>
<path d="M80.6986 92.6238C79.2426 93.1278 77.9546 94.1358 77.0586 95.4238C77.0586 95.4238 77.2826 93.1838 80.4186 91.8398L80.6986 92.6238Z" fill="#F28F8F"/>
<path d="M57.3474 69.8876C55.9474 69.8316 54.6034 69.9996 53.2594 70.3356C50.6834 71.0076 46.0914 72.2956 46.0914 72.2956C44.6354 73.0796 44.0754 75.5996 43.7394 76.9996C42.6754 81.6476 45.4194 92.1196 45.8674 96.2076C46.3154 100.296 45.3634 112.784 45.3634 112.784C48.4994 116.424 65.4674 118.832 73.6994 112.784C73.6994 112.784 74.0354 84.0556 73.2514 79.9676C72.0194 73.7516 70.1714 70.7836 63.7314 70.3916L57.3474 69.8876Z" fill="#F5F5F5"/>
<path d="M60.9856 54.4878L59.1376 55.4957C58.8576 54.9917 59.0816 54.3197 59.5856 54.0397C60.0336 53.7597 60.6496 53.9278 60.9856 54.4878C60.9296 54.4878 60.9296 54.4318 60.9856 54.4878Z" fill="#263238"/>
<path d="M68.9925 55.2158L67.3125 53.9278C67.6485 53.4798 68.2645 53.3678 68.7125 53.6478C68.7125 53.6478 68.7685 53.6478 68.7685 53.7038C69.2165 54.0398 69.3285 54.7118 68.9925 55.2158Z" fill="#263238"/>
<path d="M52.4723 48.6079C52.4723 48.6079 50.5123 48.8879 49.7843 50.3999C49.1683 51.6879 49.3923 54.8239 50.2323 58.2399C50.7363 60.4239 51.4083 62.6079 52.3603 64.6799C52.6963 65.2399 53.2563 65.6879 53.8723 65.9119L53.7603 61.8239L53.5923 59.0239C53.5923 59.0239 55.3843 56.5599 55.6083 54.5439C55.8883 51.9119 55.3283 50.8479 55.3283 50.8479L52.4723 48.6079Z" fill="#263238"/>
<path d="M55.6641 52.5278C55.6641 56.7278 59.0801 60.0878 63.2801 60.0878C67.4801 60.0878 70.6161 56.6158 70.5601 52.4718C70.5041 48.3278 67.3681 44.9678 63.2241 44.9678C59.0241 44.9678 55.6641 48.3838 55.6641 52.5278Z" fill="#263238"/>
<path d="M53.7613 58.5198C53.0893 59.1358 52.5293 57.5678 51.9693 57.0078C51.4093 56.4478 49.5053 55.6078 48.6093 57.5678C47.7133 59.5278 49.4493 62.3838 50.8493 62.9438C51.7453 63.2798 52.7533 62.9438 53.2573 62.1598V71.1198C55.3853 74.9838 59.1933 74.8718 61.2653 74.6478C63.3373 74.4238 63.7293 72.2958 62.2733 70.6158V67.8158C63.3933 67.9838 64.5693 68.0398 65.6893 67.9838C67.5373 67.7038 68.4893 66.3038 69.0493 64.2878C69.9453 61.0398 70.2813 55.6078 69.0493 49.3358C66.9773 47.7118 59.7533 47.9918 55.3853 50.7918C55.6653 56.3918 54.4333 57.9598 53.7613 58.5198Z" fill="#FFA8A7"/>
<path d="M69.3844 46.1998C69.6644 45.0238 69.7764 43.8478 69.7764 42.6158C69.7764 42.1678 69.6644 41.5518 69.2164 41.3838C68.7684 41.2158 68.3204 41.5518 67.9844 41.7758C66.3604 42.8398 64.3444 43.1758 62.4404 43.2878C59.0804 43.4558 53.9284 43.2318 52.2484 46.9278C51.8004 47.9358 51.6884 48.9998 52.6404 49.7278C53.4804 50.2878 54.4324 50.6238 55.4404 50.7918C57.1204 51.0718 58.8004 51.4638 60.5364 51.6878C62.2724 51.9118 64.2884 52.1358 66.0244 51.6318C67.4804 51.1838 68.9364 50.7918 70.0004 49.6718C70.9524 48.6638 71.4564 47.3758 71.4564 46.0318C71.4564 45.8638 71.4004 45.5838 71.2324 45.5278C71.1204 45.5278 71.0644 45.5278 70.9524 45.5838L69.3844 46.1998Z" fill="#263238"/>
<path d="M62.2176 67.8717C62.2176 67.8717 58.0736 67.0317 56.6176 66.3038C55.7776 65.8557 55.0496 65.1838 54.6016 64.3438C54.8256 65.1838 55.2176 65.9677 55.7216 66.6957C56.7856 68.0397 62.2176 69.0478 62.2176 69.0478V67.8717Z" fill="#F28F8F"/>
<path d="M61.3792 57.2318C61.3792 57.7358 60.9312 58.1278 60.4272 58.1278C59.9232 58.1278 59.5312 57.6798 59.5312 57.1758C59.5312 56.6718 59.9792 56.2798 60.4832 56.2798C60.9872 56.2798 61.3792 56.7278 61.3792 57.2318Z" fill="#263238"/>
<path d="M62.7217 63.6719C62.7217 64.1759 62.3297 64.5679 61.8257 64.5679C61.3217 64.5679 60.9297 64.1759 60.9297 63.6719C60.9297 63.1679 61.3217 62.7759 61.8257 62.7759C62.3297 62.7759 62.7217 63.2239 62.7217 63.6719Z" fill="#B16668"/>
<path d="M60.2014 54.2637L58.2974 55.4957C57.9614 54.9357 58.1294 54.2077 58.6894 53.8717C59.1934 53.5917 59.8654 53.7037 60.2014 54.2637Z" fill="#263238"/>
<path d="M66.977 53.0879L68.993 53.9839C68.769 54.5439 68.153 54.7679 67.593 54.5439H67.537C67.033 54.3199 66.809 53.6479 66.977 53.0879Z" fill="#263238"/>
<path d="M68.0981 56.952C68.0981 57.456 67.6501 57.848 67.1461 57.792C66.6421 57.792 66.2501 57.344 66.3061 56.84C66.3061 56.336 66.6981 56 67.2021 56C67.6501 56 68.0981 56.448 68.0981 56.952Z" fill="#263238"/>
<path d="M63.5039 55.3838L63.8399 61.5998L66.7519 60.8158L63.5039 55.3838Z" fill="#F28F8F"/>
<path d="M11.2018 81.0318C12.1538 81.5358 16.1298 84.3358 18.2578 84.5598C19.1538 84.6718 19.4338 84.5038 19.3778 84.2798C19.3218 83.9438 18.7618 83.4958 18.5938 83.2158C18.3698 82.7678 16.9138 80.8638 17.4738 79.8558C18.0338 78.8478 18.5378 79.7998 19.8258 81.0878C21.1138 82.3758 22.5138 82.8238 23.6898 84.3918C24.8658 85.9598 25.2578 88.3118 27.1618 90.0478L34.8898 95.3118C34.8898 95.3118 38.4738 78.6238 40.0418 76.6638C41.7218 74.5918 48.9458 79.1278 47.4338 85.6798C45.9218 92.2318 42.5058 103.656 40.0978 105.896C38.5298 107.352 35.2818 105.952 31.2498 102.368C28.0578 99.5118 23.6338 95.1998 21.7858 93.6878C19.9378 92.1758 16.0738 91.3358 14.2818 90.3278C12.3778 89.2078 11.9298 88.5358 11.2018 87.0798C10.5298 85.6798 10.8098 83.4398 10.4178 82.5998C10.0258 81.7598 10.1938 80.4718 11.2018 81.0318Z" fill="#FFA8A7"/>
<path d="M46.0893 72.2959C48.5533 73.8639 48.6653 76.1039 48.8333 78.6799C48.8893 81.7039 48.3853 84.6719 47.4333 87.5279C46.3693 90.7759 44.7453 96.7119 44.7453 96.7119C44.7453 96.7119 38.3053 96.8799 34.9453 93.9679C34.9453 93.9679 36.4573 87.5839 37.5213 82.7679C38.5853 77.9519 39.8733 72.8559 46.0893 72.2959Z" fill="#E0E0E0"/>
<path d="M34.9453 95.3117C36.7373 96.3197 37.7453 98.3917 38.0813 99.2317C37.9133 97.2717 36.8493 95.4797 35.1693 94.4717L34.9453 95.3117Z" fill="#F28F8F"/>
<path d="M101.977 216.328L145.209 241.304V250.488L101.977 225.568V216.328Z" fill="#2E7BFF"/>
<path opacity="0.35" d="M101.977 216.328L145.209 241.304V250.488L101.977 225.568V216.328Z" fill="black"/>
<path d="M188.439 216.328L145.207 241.304V250.488L188.439 225.568V216.328Z" fill="#2E7BFF"/>
<path opacity="0.2" d="M188.439 216.328L145.207 241.304V250.488L188.439 225.568V216.328Z" fill="black"/>
<path d="M188.441 216.328L145.209 191.408L101.977 216.328L145.209 241.304L188.441 216.328Z" fill="#2E7BFF"/>
<path opacity="0.15" d="M188.441 216.328L145.209 191.408L101.977 216.328L145.209 241.304L188.441 216.328Z" fill="black"/>
<path opacity="0.1" d="M145.209 241.304V238.672L106.513 216.328H101.977L145.209 241.304Z" fill="black"/>
<path opacity="0.1" d="M145.207 191.408V194.04L183.903 216.328H188.439L145.207 191.408Z" fill="black"/>
<path d="M188.439 216.328H183.903L145.207 238.672V241.304L188.439 216.328Z" fill="#2E7BFF"/>
<path d="M145.209 191.408V194.04L106.513 216.328H101.977L145.209 191.408Z" fill="#2E7BFF"/>
<path d="M145.376 205.52L163.968 216.216C165.368 217 165.368 218.344 163.968 219.128L150.08 227.136C148.512 227.92 146.608 227.92 145.04 227.136L126.448 216.44C125.048 215.656 125.048 214.312 126.448 213.528L140.28 205.52C141.904 204.736 143.752 204.736 145.376 205.52Z" fill="#37474F"/>
<path d="M150.081 227.136L163.465 219.408L145.377 208.936C143.809 208.152 141.905 208.152 140.337 208.936L126.953 216.72L145.041 227.136C146.609 227.976 148.513 227.976 150.081 227.136Z" fill="#455A64"/>
<path d="M134.119 216.384L142.239 211.68C142.519 211.512 142.911 211.512 143.191 211.68L144.199 212.24C144.479 212.408 144.479 212.632 144.199 212.8L136.079 217.504C135.799 217.672 135.407 217.672 135.127 217.504L134.119 216.944C133.951 216.888 133.895 216.72 133.951 216.552C134.007 216.44 134.063 216.384 134.119 216.384Z" fill="#263238"/>
<path d="M146.271 223.384L154.391 218.68C154.671 218.512 155.063 218.512 155.343 218.68L156.351 219.24C156.631 219.408 156.631 219.632 156.351 219.8L148.231 224.504C147.951 224.672 147.559 224.672 147.279 224.504L146.271 223.944C146.103 223.888 146.047 223.72 146.103 223.552C146.103 223.496 146.215 223.44 146.271 223.384Z" fill="#263238"/>
<path d="M126.448 234.528C126.336 232.792 125.44 231.224 123.984 230.272C123.48 229.88 122.808 229.824 122.248 230.104L121.184 230.72C120.68 231.056 120.4 231.672 120.456 232.288C120.568 234.024 121.464 235.592 122.92 236.544C123.424 236.936 124.096 236.992 124.656 236.712L125.72 236.096C126.224 235.704 126.504 235.144 126.448 234.528Z" fill="#2E7BFF"/>
<path opacity="0.1" d="M122.921 230.888C124.377 231.84 125.273 233.408 125.385 235.144C125.385 236.712 124.265 237.328 122.921 236.544C121.465 235.592 120.569 234.024 120.457 232.288C120.457 230.776 121.577 230.104 122.921 230.888Z" fill="black"/>
<path d="M94.5296 248.808C91.7856 248.864 89.0976 248.192 86.6896 246.904L58.0176 230.328C55.7216 228.984 54.4336 227.136 54.4336 225.176C54.4336 223.216 55.7216 221.312 58.0176 220.024L91.2256 200.872C94.8656 198.744 97.9456 193.424 97.9456 189.224V84.056C97.9456 83.44 98.4496 82.936 99.0656 82.936C99.6816 82.936 100.186 83.44 100.186 84.056V189.168C100.186 194.264 96.7696 200.2 92.3456 202.72L59.1376 221.872C57.5696 222.768 56.6736 223.944 56.6736 225.12C56.6736 226.296 57.5696 227.416 59.1376 228.368L87.8096 244.944C91.5056 247.072 97.5536 247.072 101.25 244.944L122.418 232.736C122.922 232.4 123.65 232.568 123.986 233.072C124.322 233.576 124.154 234.304 123.65 234.64L123.594 234.696L102.426 246.904C99.9616 248.192 97.2176 248.864 94.5296 248.808Z" fill="#37474F"/>
<path d="M44.1861 43.848C44.1301 43.68 44.1861 43.512 44.2981 43.4C44.4101 43.288 44.5221 43.176 44.6901 43.176L47.4341 42.672C47.6021 42.616 47.7701 42.672 47.8821 42.784C47.9941 42.896 48.1061 43.008 48.1061 43.176L48.5541 45.36C48.6101 45.528 48.5541 45.696 48.4421 45.808C48.3861 45.92 48.2181 46.032 48.0501 46.088L45.3061 46.592C45.1381 46.648 44.9701 46.592 44.8581 46.48C44.7461 46.368 44.6341 46.256 44.6341 46.088L44.1861 43.848ZM41.9461 32.032C41.8901 31.696 42.1141 31.416 42.3941 31.36L45.1381 30.856C45.3061 30.8 45.4741 30.856 45.5861 30.968C45.6981 31.08 45.8101 31.192 45.8101 31.36L47.6021 40.656C47.6581 40.824 47.6021 40.992 47.4901 41.104C47.3781 41.216 47.2661 41.328 47.0981 41.328L44.3541 41.832C44.1861 41.888 44.0181 41.832 43.9061 41.72C43.7941 41.608 43.6821 41.496 43.6821 41.328L41.9461 32.032Z" fill="#2E7BFF"/>
<path d="M39.6487 52.9762C39.4247 52.7522 39.4247 52.3602 39.7047 52.1362L41.7767 50.2882C41.8887 50.1762 42.0567 50.1202 42.2247 50.1202C42.3927 50.1202 42.5047 50.1762 42.6167 50.2882L44.1287 51.9682C44.3527 52.1922 44.3527 52.5842 44.0727 52.8082L42.0007 54.7122C41.8887 54.8242 41.7207 54.8802 41.5527 54.8802C41.3847 54.8802 41.2727 54.8242 41.1607 54.7122L39.6487 52.9762ZM31.6407 44.0162C31.5287 43.9042 31.4727 43.7362 31.4727 43.5682C31.4727 43.4002 31.5287 43.2882 31.6407 43.1762L33.7127 41.3282C33.8247 41.2162 33.9927 41.1602 34.1607 41.1602C34.3287 41.1602 34.4407 41.2162 34.5527 41.3282L40.8807 48.4402C40.9927 48.5522 41.0487 48.7202 41.0487 48.8882C41.0487 49.0562 40.9927 49.1682 40.8807 49.2802L38.8087 51.1282C38.6967 51.2402 38.5287 51.2962 38.3607 51.2962C38.1927 51.2962 38.0247 51.2402 37.9687 51.1282L31.6407 44.0162Z" fill="#2E7BFF"/>
<g opacity="0.6">
<path d="M39.6487 52.9762C39.4247 52.7522 39.4247 52.3602 39.7047 52.1362L41.7767 50.2882C41.8887 50.1762 42.0567 50.1202 42.2247 50.1202C42.3927 50.1202 42.5047 50.1762 42.6167 50.2882L44.1287 51.9682C44.3527 52.1922 44.3527 52.5842 44.0727 52.8082L42.0007 54.7122C41.8887 54.8242 41.7207 54.8802 41.5527 54.8802C41.3847 54.8802 41.2727 54.8242 41.1607 54.7122L39.6487 52.9762ZM31.6407 44.0162C31.5287 43.9042 31.4727 43.7362 31.4727 43.5682C31.4727 43.4002 31.5287 43.2882 31.6407 43.1762L33.7127 41.3282C33.8247 41.2162 33.9927 41.1602 34.1607 41.1602C34.3287 41.1602 34.4407 41.2162 34.5527 41.3282L40.8807 48.4402C40.9927 48.5522 41.0487 48.7202 41.0487 48.8882C41.0487 49.0562 40.9927 49.1682 40.8807 49.2802L38.8087 51.1282C38.6967 51.2402 38.5287 51.2962 38.3607 51.2962C38.1927 51.2962 38.0247 51.2402 37.9687 51.1282L31.6407 44.0162Z" fill="white"/>
</g>
</svg>
