<svg width="152" height="48" fill="none" xmlns="http://www.w3.org/2000/svg"><path fill-rule="evenodd" clip-rule="evenodd" d="M.006 8.234C1.956 3.583 6.592 0 12.003 0 17.413 0 22.05 3.583 24 8.228c0 0-2.285.292-4.436.859-.63.17-1.253.358-1.805.572a62.833 62.833 0 00-4.14 1.79c-1.009.478-1.622.803-1.622.803s-.518-.259-1.521-.727a147.49 147.49 0 00-4.163-1.86c-.501-.22-1.125-.413-1.783-.584C2.44 8.537.006 8.234.006 8.234zM4.53 9.962c-1.588.683-2.697 2.24-2.697 4.056 0 2.444 2.006 4.426 4.48 4.426 2.475 0 4.48-1.982 4.48-4.425 0-.573-.11-1.118-.311-1.619a147.244 147.244 0 00-4.163-1.86c-.507-.215-1.131-.407-1.789-.578zm2.78 4.056a.99.99 0 01-.997.986.99.99 0 01-.997-.986.99.99 0 01.997-.985c.552 0 .998.446.998.986zm5.969.006c0-.6.122-1.167.34-1.69a58.946 58.946 0 014.14-1.783c.546-.215 1.17-.407 1.805-.572a4.409 4.409 0 012.675 4.045c0 2.444-2.006 4.425-4.48 4.425-2.474 0-4.48-1.981-4.48-4.425zm4.48.98a.99.99 0 00.997-.986.994.994 0 00-.997-.985.99.99 0 00-.997.986.99.99 0 00.997.985zm-6.848 1.871l1.092-1.079 1.092 1.074a.869.869 0 01.15 1.029l-1.242 1.673-1.243-1.679a.851.851 0 01.15-1.018zm-.519 8.823c.53.072 1.065.11 1.61.11l.408-.011s.15 1.486.15 2.18c0 4.502-1.911 9.312-4.993 12.504a17.017 17.017 0 01-4.825 3.154 9.527 9.527 0 01-2.742.49V15.791c.88 5.174 5.099 9.219 10.392 9.907zm2.853.044c.1.781.15 1.514.15 2.24 0 4.068-1.415 8.273-3.889 11.542-2.58 3.412-5.95 5.333-9.506 5.432V48c14.16-2.328 23.788-10.22 24-32.182a11.905 11.905 0 01-1.856 4.618 12.192 12.192 0 01-8.899 5.306zm125.523-12.015h-2.909v11.697h2.909V13.727zm-2.812-5.19a1.67 1.67 0 00-.509 1.218c0 .47.17.885.509 1.242.356.342.8.512 1.333.512.534 0 .978-.162 1.334-.487a1.65 1.65 0 00.557-1.267c0-.504-.185-.918-.557-1.243-.356-.341-.8-.512-1.334-.512-.533 0-.977.179-1.333.536zM40 8.17h11.37v2.778h-8.315v4.24h7.88v2.778h-7.88v4.679h8.752v2.778H40V8.171zm20.761 8.797c-.566-.796-1.325-1.194-2.279-1.194-.388 0-.768.097-1.14.292-.371.195-.557.512-.557.95 0 .358.154.618.46.78.308.163.696.301 1.164.415l1.504.365c.549.114 1.058.3 1.527.56a3.21 3.21 0 011.164 1.024c.307.439.46 1.04.46 1.804 0 .698-.153 1.291-.46 1.779a3.425 3.425 0 01-1.164 1.145 5.006 5.006 0 01-1.6.634 8.43 8.43 0 01-1.794.195c-.905 0-1.738-.13-2.498-.39-.76-.26-1.438-.732-2.036-1.414l1.94-1.828a5.86 5.86 0 001.188 1.048c.436.26.961.39 1.575.39.21 0 .429-.024.655-.073.226-.049.436-.13.63-.244.194-.113.348-.251.461-.414a1.01 1.01 0 00.194-.609c0-.406-.154-.707-.46-.902-.308-.195-.696-.349-1.164-.463-.47-.13-.978-.243-1.528-.34a6.565 6.565 0 01-1.503-.513 3.301 3.301 0 01-1.164-.999c-.307-.422-.46-1.007-.46-1.754 0-.65.129-1.21.388-1.682a3.61 3.61 0 011.066-1.194 4.547 4.547 0 011.504-.682 6.699 6.699 0 014.024.195c.76.26 1.374.714 1.843 1.364l-1.94 1.755zm3.208-3.241v2.485h2.4v5.362c0 .682.05 1.283.146 1.803.113.52.307.959.582 1.316.29.341.679.593 1.164.755.5.18 1.14.268 1.915.268.34 0 .727-.032 1.164-.097.452-.049.832-.146 1.14-.292v-2.462c-.179.13-.421.228-.728.293-.307.048-.59.073-.849.073-.646 0-1.083-.17-1.309-.512-.21-.341-.315-.804-.315-1.389v-5.117h3.2v-2.486h-3.2v-3.388h-2.91v3.388h-2.4zm10.781 0h2.91v1.852h.048c.323-.683.784-1.21 1.382-1.584.598-.374 1.285-.56 2.06-.56.178 0 .348.016.51.048.178.033.355.073.533.122v2.827a5.763 5.763 0 00-.727-.146 3.212 3.212 0 00-.68-.074c-.678 0-1.227.13-1.648.39a3.039 3.039 0 00-.945.853 3.24 3.24 0 00-.437.975 4.13 4.13 0 00-.097.731v6.263H74.75V13.727zm16.624 10.089h.072v1.608h2.619v-6.726c0-.276-.008-.593-.024-.95a5.783 5.783 0 00-.17-1.146 3.978 3.978 0 00-.436-1.145 2.995 2.995 0 00-.85-1.024c-.37-.292-.84-.527-1.405-.706-.566-.195-1.26-.293-2.085-.293-.921 0-1.819.147-2.691.439a5.649 5.649 0 00-2.255 1.438l1.527 1.535a4.19 4.19 0 011.382-.877 4.341 4.341 0 011.722-.341c.775 0 1.414.186 1.915.56.5.358.751.902.751 1.633v.317h-.727c-.485 0-1.002.016-1.551.048a11.4 11.4 0 00-1.65.171 8.35 8.35 0 00-1.55.39 4.608 4.608 0 00-1.334.731c-.372.292-.67.666-.897 1.121-.227.439-.34.975-.34 1.608 0 .585.122 1.097.364 1.536.243.438.558.804.946 1.096.404.293.856.512 1.357.658.517.146 1.043.22 1.576.22.776 0 1.487-.147 2.134-.44.646-.308 1.18-.795 1.6-1.461zm-.703-3.631h.606v.658c0 .828-.243 1.486-.728 1.974-.468.47-1.204.706-2.206.706-.242 0-.485-.024-.727-.073a2.178 2.178 0 01-.655-.292 1.888 1.888 0 01-.485-.463 1.385 1.385 0 01-.17-.707c0-.422.154-.747.461-.975a2.976 2.976 0 011.115-.536 6.75 6.75 0 011.431-.244c.501-.032.954-.048 1.358-.048zm5.166-3.973v-2.485h2.4v-3.388h2.91v3.388h3.2v2.485h-3.2v5.118c0 .585.105 1.048.315 1.39.226.34.663.51 1.309.51.259 0 .542-.024.849-.072.307-.065.549-.163.727-.293v2.462c-.307.146-.687.243-1.139.292a8.012 8.012 0 01-1.164.098c-.776 0-1.414-.09-1.915-.268-.485-.163-.873-.415-1.164-.756-.275-.357-.469-.796-.582-1.316a9.931 9.931 0 01-.145-1.803v-5.362h-2.4zm14.127 6.434c-.582-.487-.922-1.17-1.019-2.047h8.874v-.804c0-1.024-.138-1.925-.412-2.705-.259-.796-.631-1.462-1.116-1.998a4.5 4.5 0 00-1.721-1.219c-.663-.292-1.398-.439-2.206-.439-.873 0-1.697.147-2.473.439a5.915 5.915 0 00-2.012 1.243 6.006 6.006 0 00-1.358 1.95c-.323.747-.485 1.583-.485 2.51 0 .925.162 1.77.485 2.534a6.078 6.078 0 001.358 1.925c.565.536 1.236.95 2.012 1.243.776.292 1.6.439 2.473.439a6.69 6.69 0 002.643-.537c.84-.357 1.6-.958 2.278-1.803l-2.085-1.584a5.193 5.193 0 01-1.309 1.145c-.485.293-1.091.44-1.818.44-.824 0-1.527-.245-2.109-.732zm4.145-6.263c.518.487.784 1.162.801 2.023h-5.965c.114-.845.421-1.52.922-2.023.517-.504 1.212-.755 2.085-.755.921 0 1.64.251 2.157.755zm2.376-8.212h-3.297l-2.4 3.509h2.279l3.418-3.51zm16.031 5.556v10.65c0 1.055-.129 2.006-.388 2.85-.258.861-.662 1.584-1.212 2.17-.533.6-1.212 1.063-2.036 1.388-.825.325-1.803.488-2.934.488a11.19 11.19 0 01-3.079-.415c-.97-.276-1.867-.78-2.691-1.51l1.745-2.389c.582.537 1.188.95 1.819 1.243.63.293 1.357.439 2.182.439.695 0 1.277-.098 1.745-.293.485-.194.865-.463 1.14-.804a2.88 2.88 0 00.606-1.243c.129-.47.194-.999.194-1.584v-.853h-.049c-.42.57-.977 1-1.672 1.292a5.733 5.733 0 01-2.134.414c-.873 0-1.665-.154-2.376-.463a5.986 5.986 0 01-1.842-1.291 5.66 5.66 0 01-1.164-1.901 6.59 6.59 0 01-.412-2.34c0-.86.129-1.665.388-2.412a5.57 5.57 0 011.139-1.95 5.293 5.293 0 011.794-1.291c.711-.325 1.519-.488 2.425-.488.824 0 1.592.163 2.303.488.711.325 1.277.845 1.697 1.56h.048v-1.755h2.764zm-6.206 2.34c-.518 0-.986.089-1.407.267-.42.163-.783.398-1.091.707-.29.293-.525.658-.703 1.097a3.942 3.942 0 00-.242 1.413c0 .471.081.91.242 1.316.178.406.421.764.728 1.072a3.43 3.43 0 002.448 1c.534 0 1.011-.09 1.431-.269a3.26 3.26 0 001.091-.706c.307-.309.541-.675.703-1.097.162-.422.242-.877.242-1.365 0-1.023-.307-1.852-.921-2.485-.614-.634-1.455-.95-2.521-.95zm23.072 7.749h-.073c-.42.666-.954 1.153-1.6 1.462a5.12 5.12 0 01-2.134.439 5.774 5.774 0 01-1.576-.22 4.39 4.39 0 01-1.357-.658 3.444 3.444 0 01-.946-1.096c-.242-.439-.363-.95-.363-1.536 0-.633.113-1.17.339-1.608.226-.455.525-.829.897-1.121a4.607 4.607 0 011.333-.731 8.358 8.358 0 011.552-.39c.55-.098 1.099-.154 1.649-.17a26.321 26.321 0 011.551-.05h.728v-.316c0-.731-.251-1.276-.752-1.633-.501-.374-1.139-.56-1.915-.56-.614 0-1.188.113-1.722.34a4.195 4.195 0 00-1.382.878l-1.527-1.535a5.65 5.65 0 012.255-1.438 8.418 8.418 0 012.691-.439c.824 0 1.519.098 2.085.293.566.178 1.034.414 1.406.707.372.292.655.633.849 1.023.21.374.355.755.436 1.145.097.39.154.772.17 1.146.016.357.024.674.024.95v6.726h-2.618v-1.608zm-.17-3.631h-.606c-.404 0-.857.016-1.358.048a6.74 6.74 0 00-1.43.244 2.981 2.981 0 00-1.116.536c-.307.228-.46.553-.46.975 0 .276.056.512.17.707.129.178.29.333.484.463s.413.227.655.292c.242.049.485.073.727.073 1.002 0 1.738-.235 2.207-.706.484-.488.727-1.146.727-1.974v-.658zM41.649 32.939L43.822 40h1.753l2.328-7.048h.056c-.05 1.132-.079 1.83-.087 2.093a46.16 46.16 0 00-.006.695V40h1.784v-9h-2.605l-2.266 6.882h-.037L42.606 31H40v9h1.71v-4.186c0-.48-.039-1.438-.117-2.875h.055zM51.675 40h5.198v-1.576H53.59v-2.32h3.056V34.54H53.59v-1.976h3.284V31h-5.198v9zM66 35.414c0 1.481-.424 2.616-1.272 3.404-.844.788-2.064 1.182-3.661 1.182H58.51v-9h2.834c1.473 0 2.617.388 3.433 1.163.814.776 1.222 1.86 1.222 3.25zm-1.988.05c0-1.934-.856-2.9-2.569-2.9h-1.018v5.86h.82c1.845 0 2.767-.987 2.767-2.96z" fill="#0BA4AE"/></svg>